<svg width="120" height="20" viewBox="0 0 104 17" fill="none" xmlns="http://www.w3.org/2000/svg">
<path d="M17.776 15.712C17.84 15.712 17.872 15.76 17.872 15.856C17.872 15.952 17.84 16 17.776 16C17.472 16 17 15.984 16.36 15.952C15.72 15.92 15.256 15.904 14.968 15.904C14.616 15.904 14.168 15.92 13.624 15.952C13.112 15.984 12.72 16 12.448 16C12.384 16 12.352 15.952 12.352 15.856C12.352 15.76 12.384 15.712 12.448 15.712C13.04 15.712 13.472 15.656 13.744 15.544C14.016 15.432 14.152 15.24 14.152 14.968C14.152 14.744 14.048 14.4 13.84 13.936L11.08 8.056H6.544L4.48 12.952C4.256 13.496 4.144 13.944 4.144 14.296C4.144 15.24 4.928 15.712 6.496 15.712C6.576 15.712 6.616 15.76 6.616 15.856C6.616 15.952 6.576 16 6.496 16C6.208 16 5.792 15.984 5.248 15.952C4.64 15.92 4.112 15.904 3.664 15.904C3.248 15.904 2.768 15.92 2.224 15.952C1.744 15.984 1.344 16 1.024 16C0.944 16 0.904 15.952 0.904 15.856C0.904 15.76 0.944 15.712 1.024 15.712C1.472 15.712 1.848 15.632 2.152 15.472C2.472 15.296 2.768 15 3.04 14.584C3.328 14.152 3.64 13.536 3.976 12.736L9.04 0.784C9.072 0.736 9.128 0.711999 9.208 0.711999C9.288 0.711999 9.336 0.736 9.352 0.784L15.016 12.712C15.56 13.896 16.024 14.696 16.408 15.112C16.792 15.512 17.248 15.712 17.776 15.712ZM6.76 7.552H10.84L8.68 2.992L6.76 7.552ZM37.3396 15.712C37.3876 15.712 37.4116 15.76 37.4116 15.856C37.4116 15.952 37.3876 16 37.3396 16C36.8436 16 36.4516 15.992 36.1636 15.976L34.5076 15.952L32.9716 15.976C32.7156 15.992 32.3556 16 31.8916 16C31.8596 16 31.8436 15.952 31.8436 15.856C31.8436 15.76 31.8596 15.712 31.8916 15.712C32.4356 15.712 32.8356 15.672 33.0916 15.592C33.3636 15.496 33.5396 15.336 33.6196 15.112C33.7156 14.888 33.7476 14.536 33.7156 14.056L33.2836 3.136L27.8116 15.832C27.7796 15.896 27.7156 15.928 27.6196 15.928C27.5396 15.928 27.4676 15.896 27.4036 15.832L21.4996 3.28L21.2836 13.384C21.2676 14.232 21.4116 14.832 21.7156 15.184C22.0196 15.536 22.5556 15.712 23.3236 15.712C23.3556 15.712 23.3716 15.76 23.3716 15.856C23.3716 15.952 23.3556 16 23.3236 16C22.8756 16 22.5316 15.992 22.2916 15.976L20.9956 15.952L19.7476 15.976C19.5236 15.992 19.2036 16 18.7876 16C18.7556 16 18.7396 15.952 18.7396 15.856C18.7396 15.76 18.7556 15.712 18.7876 15.712C19.4596 15.712 19.9396 15.536 20.2276 15.184C20.5316 14.816 20.6916 14.216 20.7076 13.384L20.9236 2.248C20.4436 1.608 19.7876 1.288 18.9556 1.288C18.9236 1.288 18.9076 1.24 18.9076 1.144C18.9076 1.048 18.9236 1 18.9556 1L19.8436 1.024C20.0036 1.04 20.2276 1.048 20.5156 1.048C20.8036 1.048 21.0436 1.04 21.2356 1.024C21.4436 1.008 21.6036 1 21.7156 1C21.9236 1 22.0916 1.08 22.2196 1.24C22.3636 1.384 22.5636 1.72 22.8196 2.248L28.1716 13.528L33.4036 1.6C33.5796 1.2 33.8196 1 34.1236 1C34.2036 1 34.3156 1.008 34.4596 1.024C34.6196 1.04 34.8276 1.048 35.0836 1.048L36.2116 1.024C36.3876 1.008 36.6516 1 37.0036 1C37.0516 1 37.0756 1.048 37.0756 1.144C37.0756 1.24 37.0516 1.288 37.0036 1.288C36.2036 1.288 35.6276 1.408 35.2756 1.648C34.9396 1.872 34.7796 2.304 34.7956 2.944L35.2756 14.056C35.2916 14.552 35.3476 14.912 35.4436 15.136C35.5556 15.36 35.7476 15.512 36.0196 15.592C36.2916 15.672 36.7316 15.712 37.3396 15.712ZM45.8821 7.552C47.1461 7.648 48.1621 8.072 48.9301 8.824C49.7141 9.56 50.1061 10.48 50.1061 11.584C50.1061 12.432 49.8981 13.2 49.4821 13.888C49.0661 14.576 48.4901 15.12 47.7541 15.52C47.0341 15.904 46.2261 16.096 45.3301 16.096C44.8021 16.096 44.2261 16.072 43.6021 16.024C43.3781 16.008 43.1141 15.992 42.8101 15.976C42.5061 15.96 42.1701 15.952 41.8021 15.952L40.1701 15.976C39.8821 15.992 39.4741 16 38.9461 16C38.9141 16 38.8981 15.952 38.8981 15.856C38.8981 15.76 38.9141 15.712 38.9461 15.712C39.5541 15.712 40.0021 15.672 40.2901 15.592C40.5781 15.496 40.7781 15.336 40.8901 15.112C41.0021 14.888 41.0581 14.536 41.0581 14.056V2.944C41.0581 2.464 41.0021 2.112 40.8901 1.888C40.7941 1.664 40.6021 1.512 40.3141 1.432C40.0261 1.336 39.5861 1.288 38.9941 1.288C38.9461 1.288 38.9221 1.24 38.9221 1.144C38.9221 1.048 38.9461 1 38.9941 1L40.1701 1.024C40.8421 1.056 41.3861 1.072 41.8021 1.072C42.0901 1.072 42.3541 1.064 42.5941 1.048C42.8501 1.032 43.0661 1.016 43.2421 1C43.7381 0.952 44.2021 0.927999 44.6341 0.927999C45.9781 0.927999 46.9861 1.224 47.6581 1.816C48.3301 2.392 48.6661 3.152 48.6661 4.096C48.6661 4.864 48.4181 5.552 47.9221 6.16C47.4261 6.752 46.7461 7.216 45.8821 7.552ZM44.1061 1.288C43.6901 1.288 43.3781 1.32 43.1701 1.384C42.9781 1.448 42.8341 1.6 42.7381 1.84C42.6421 2.08 42.5941 2.464 42.5941 2.992V7.552L43.6741 7.576C44.8421 7.576 45.7061 7.28 46.2661 6.688C46.8261 6.08 47.1061 5.28 47.1061 4.288C47.1061 3.392 46.8581 2.672 46.3621 2.128C45.8821 1.568 45.1301 1.288 44.1061 1.288ZM44.9701 15.664C46.1381 15.664 47.0021 15.368 47.5621 14.776C48.1381 14.168 48.4261 13.304 48.4261 12.184C48.4261 10.968 48.0661 9.984 47.3461 9.232C46.6421 8.48 45.6661 8.096 44.4181 8.08C43.9061 8.064 43.2981 8.08 42.5941 8.128V14.056C42.5941 14.472 42.6501 14.792 42.7621 15.016C42.8901 15.24 43.1221 15.408 43.4581 15.52C43.8101 15.616 44.3141 15.664 44.9701 15.664ZM67.6889 15.712C67.7209 15.712 67.7369 15.76 67.7369 15.856C67.7369 15.952 67.7209 16 67.6889 16H64.5929C64.1929 16 63.4409 15.32 62.3369 13.96C61.2489 12.584 59.9209 10.672 58.3529 8.224C57.9689 8.336 57.5369 8.392 57.0569 8.392C56.7529 8.392 56.3929 8.376 55.9769 8.344V14.056C55.9769 14.552 56.0249 14.912 56.1209 15.136C56.2169 15.36 56.4009 15.512 56.6729 15.592C56.9609 15.672 57.4089 15.712 58.0169 15.712C58.0649 15.712 58.0889 15.76 58.0889 15.856C58.0889 15.952 58.0649 16 58.0169 16C57.5209 16 57.1289 15.992 56.8409 15.976L55.1849 15.952L53.5529 15.976C53.2649 15.992 52.8569 16 52.3289 16C52.2969 16 52.2809 15.952 52.2809 15.856C52.2809 15.76 52.2969 15.712 52.3289 15.712C52.9369 15.712 53.3849 15.672 53.6729 15.592C53.9609 15.496 54.1609 15.336 54.2729 15.112C54.3849 14.888 54.4409 14.536 54.4409 14.056V2.944C54.4409 2.464 54.3849 2.112 54.2729 1.888C54.1769 1.664 53.9849 1.512 53.6969 1.432C53.4249 1.336 52.9849 1.288 52.3769 1.288C52.3289 1.288 52.3049 1.24 52.3049 1.144C52.3049 1.048 52.3289 1 52.3769 1L53.5529 1.024C54.2249 1.056 54.7689 1.072 55.1849 1.072C55.4729 1.072 55.7449 1.064 56.0009 1.048C56.2569 1.032 56.4809 1.016 56.6729 1C57.1849 0.952 57.6489 0.927999 58.0649 0.927999C59.3609 0.927999 60.3609 1.192 61.0649 1.72C61.7689 2.248 62.1209 2.984 62.1209 3.928C62.1209 4.696 61.8969 5.424 61.4489 6.112C61.0009 6.784 60.4089 7.32 59.6729 7.72C61.0329 9.752 62.1769 11.344 63.1049 12.496C64.0329 13.632 64.8569 14.456 65.5769 14.968C66.2969 15.464 67.0009 15.712 67.6889 15.712ZM55.9769 7.744C56.3769 7.808 56.8489 7.84 57.3929 7.84C58.4969 7.84 59.2889 7.608 59.7689 7.144C60.2489 6.664 60.4889 5.872 60.4889 4.768C60.4889 2.448 59.5129 1.288 57.5609 1.288C57.1289 1.288 56.8009 1.328 56.5769 1.408C56.3689 1.472 56.2169 1.624 56.1209 1.864C56.0249 2.088 55.9769 2.464 55.9769 2.992V7.744ZM75.1043 16.288C73.6163 16.288 72.2883 15.944 71.1203 15.256C69.9683 14.552 69.0723 13.608 68.4323 12.424C67.8083 11.224 67.4963 9.92 67.4963 8.512C67.4963 6.864 67.9123 5.456 68.7443 4.288C69.5763 3.104 70.6403 2.216 71.9363 1.624C73.2483 1.032 74.5843 0.735999 75.9443 0.735999C77.4643 0.735999 78.8003 1.096 79.9523 1.816C81.1043 2.52 81.9843 3.456 82.5923 4.624C83.2163 5.792 83.5283 7.032 83.5283 8.344C83.5283 9.8 83.1443 11.136 82.3763 12.352C81.6083 13.568 80.5763 14.528 79.2803 15.232C78.0003 15.936 76.6083 16.288 75.1043 16.288ZM75.9443 15.784C77.0323 15.784 78.0083 15.52 78.8723 14.992C79.7523 14.464 80.4403 13.688 80.9363 12.664C81.4483 11.64 81.7043 10.424 81.7043 9.016C81.7043 7.512 81.4243 6.176 80.8643 5.008C80.3043 3.84 79.5123 2.928 78.4883 2.272C77.4803 1.616 76.2963 1.288 74.9363 1.288C73.1763 1.288 71.8003 1.856 70.8083 2.992C69.8163 4.128 69.3203 5.688 69.3203 7.672C69.3203 9.176 69.6003 10.552 70.1603 11.8C70.7203 13.032 71.5043 14.008 72.5123 14.728C73.5203 15.432 74.6643 15.784 75.9443 15.784ZM88.1753 3.808C88.1753 4.432 88.3273 4.976 88.6313 5.44C88.9353 5.904 89.3033 6.296 89.7353 6.616C90.1673 6.92 90.7753 7.312 91.5593 7.792C92.3913 8.288 93.0393 8.704 93.5033 9.04C93.9673 9.376 94.3593 9.808 94.6793 10.336C95.0153 10.848 95.1833 11.464 95.1833 12.184C95.1833 12.952 94.9913 13.648 94.6073 14.272C94.2233 14.896 93.6553 15.392 92.9033 15.76C92.1673 16.112 91.2793 16.288 90.2393 16.288C89.0073 16.288 87.8793 16.008 86.8553 15.448C86.7753 15.4 86.7193 15.344 86.6873 15.28C86.6713 15.216 86.6553 15.12 86.6393 14.992L86.3273 11.728C86.3113 11.664 86.3433 11.624 86.4233 11.608C86.5193 11.592 86.5753 11.616 86.5913 11.68C86.8473 12.832 87.3193 13.824 88.0073 14.656C88.7113 15.488 89.6393 15.904 90.7913 15.904C91.5913 15.904 92.2633 15.688 92.8073 15.256C93.3673 14.808 93.6473 14.104 93.6473 13.144C93.6473 12.424 93.4873 11.8 93.1673 11.272C92.8473 10.744 92.4553 10.312 91.9913 9.976C91.5433 9.624 90.9273 9.216 90.1433 8.752C89.3753 8.288 88.7673 7.888 88.3193 7.552C87.8873 7.216 87.5193 6.792 87.2153 6.28C86.9113 5.768 86.7593 5.168 86.7593 4.48C86.7593 3.68 86.9673 3 87.3833 2.44C87.8153 1.864 88.3673 1.44 89.0393 1.168C89.7273 0.879999 90.4553 0.735999 91.2233 0.735999C92.1673 0.735999 93.1033 0.927999 94.0313 1.312C94.2713 1.392 94.3913 1.528 94.3913 1.72L94.5593 4.48C94.5593 4.544 94.5193 4.576 94.4393 4.576C94.3593 4.576 94.3113 4.544 94.2953 4.48C94.1673 3.648 93.8233 2.88 93.2633 2.176C92.7033 1.456 91.8953 1.096 90.8393 1.096C89.9433 1.096 89.2713 1.36 88.8233 1.888C88.3913 2.4 88.1753 3.04 88.1753 3.808ZM101.26 14.056C101.26 14.536 101.308 14.896 101.404 15.136C101.5 15.36 101.684 15.512 101.956 15.592C102.244 15.672 102.692 15.712 103.3 15.712C103.348 15.712 103.372 15.76 103.372 15.856C103.372 15.952 103.348 16 103.3 16C102.82 16 102.436 15.992 102.148 15.976L100.444 15.952L98.7884 15.976C98.5004 15.992 98.1084 16 97.6124 16C97.5644 16 97.5404 15.952 97.5404 15.856C97.5404 15.76 97.5644 15.712 97.6124 15.712C98.2204 15.712 98.6604 15.672 98.9324 15.592C99.2204 15.512 99.4124 15.36 99.5084 15.136C99.6204 14.896 99.6764 14.536 99.6764 14.056V2.944C99.6764 2.464 99.6204 2.112 99.5084 1.888C99.4124 1.664 99.2204 1.512 98.9324 1.432C98.6604 1.336 98.2204 1.288 97.6124 1.288C97.5644 1.288 97.5404 1.24 97.5404 1.144C97.5404 1.048 97.5644 1 97.6124 1L98.7884 1.024C99.4604 1.056 100.012 1.072 100.444 1.072C100.924 1.072 101.5 1.056 102.172 1.024L103.3 1C103.348 1 103.372 1.048 103.372 1.144C103.372 1.24 103.348 1.288 103.3 1.288C102.708 1.288 102.268 1.336 101.98 1.432C101.708 1.528 101.516 1.696 101.404 1.936C101.308 2.16 101.26 2.512 101.26 2.992V14.056Z" fill="black"/>
</svg>
